<svg id="Layer_1" height="512" viewBox="0 0 512 512" width="512" xmlns="http://www.w3.org/2000/svg" data-name="Layer 1"><path d="m112.876 443.3h286.248a6 6 0 0 0 0-12h-286.248a6 6 0 1 0 0 12z"/><path d="m112.876 372.441h286.248a6 6 0 0 0 0-12h-286.248a6 6 0 0 0 0 12z"/><path d="m112.876 301.579h286.248a6 6 0 0 0 0-12h-286.248a6 6 0 0 0 0 12z"/><path d="m112.876 230.717h286.248a6 6 0 0 0 0-12h-286.248a6 6 0 0 0 0 12z"/><path d="m243.39 159.855h155.734a6 6 0 0 0 0-12h-155.734a6 6 0 0 0 0 12z"/><path d="m243.39 88.994h155.734a6 6 0 0 0 0-12h-155.734a6 6 0 0 0 0 12z"/><path d="m116.4 159.709a10.99 10.99 0 0 0 3.37 7.955 10.593 10.593 0 0 0 7.481 2.736c11.02 0 26.841-12.178 38.341-22.571 11.808 9.191 27.751 19.745 38.729 19.745a10.518 10.518 0 0 0 11.208-11.5c-.36-9.806-10.639-24.4-22.577-37.551 10.936-13.992 20.113-29.3 19.753-39.1a10.99 10.99 0 0 0 -3.37-7.953c-9.944-9.214-31.322 6.727-45.824 19.831-15.426-12.007-37.919-26.339-47.161-16.422a10.99 10.99 0 0 0 -2.775 8.178c.36 9.806 10.639 24.4 22.577 37.551-10.935 13.992-20.111 29.292-19.752 39.101zm11.965-1.309c.357-4.268 5.479-15.056 16.174-29.035 1.936 1.921 3.866 3.773 5.758 5.527.879.814 3 2.748 5.944 5.282-13.215 11.685-23.641 17.569-27.875 18.226zm75.134-2.755c-4.277-.347-15.1-5.453-29.142-16.137 2.752-2.741 4.723-4.826 5.538-5.7 1.758-1.887 3.547-3.876 5.336-5.932 11.694 13.154 17.597 23.537 18.269 27.769zm-2.76-74.912c-.357 4.267-5.479 15.056-16.174 29.035-1.936-1.921-3.866-3.774-5.758-5.527-.879-.814-2.993-2.746-5.943-5.282 13.217-11.685 23.636-17.569 27.876-18.226zm-36.639 26.467q3.21 2.756 6.555 5.846t6.3 6.07q-2.752 3.189-5.84 6.513-3.107 3.336-6.106 6.31-3.21-2.756-6.555-5.846t-6.305-6.07q2.753-3.189 5.84-6.514 3.111-3.337 6.111-6.309zm-38.495-23.712c4.278.347 15.1 5.453 29.142 16.137-2.755 2.744-4.72 4.825-5.537 5.7-1.758 1.886-3.547 3.876-5.336 5.933-11.693-13.158-17.596-23.538-18.269-27.77z"/><path d="m439 10h-366a8.009 8.009 0 0 0 -8 8v476a8.009 8.009 0 0 0 8 8h366a8.009 8.009 0 0 0 8-8v-476a8.009 8.009 0 0 0 -8-8zm-4 480h-358v-468h358z"/></svg>