<?xml version="1.0" encoding="UTF-8"?>
<svg width="638px" height="357px" viewBox="0 0 638 357" version="1.1" xmlns="http://www.w3.org/2000/svg" xmlns:xlink="http://www.w3.org/1999/xlink">
    <!-- Generator: Sketch 49.3 (51167) - http://www.bohemiancoding.com/sketch -->
    <title>Group 2</title>
    <desc>Created with Sketch.</desc>
    <defs>
        <linearGradient x1="-3.0138668%" y1="85.702692%" x2="94.8295275%" y2="21.2008891%" id="linearGradient-1">
            <stop stop-color="#0059B3" offset="0%"></stop>
            <stop stop-color="#00D4FF" offset="100%"></stop>
        </linearGradient>
        <rect id="path-2" x="0" y="0" width="87" height="87"></rect>
        <linearGradient x1="39.0151986%" y1="52.7220303%" x2="63.2335115%" y2="46.2073178%" id="linearGradient-4">
            <stop stop-color="#000000" stop-opacity="0" offset="0%"></stop>
            <stop stop-color="#000000" offset="49.2277818%"></stop>
            <stop stop-color="#000000" stop-opacity="0" offset="100%"></stop>
        </linearGradient>
        <linearGradient x1="37.4626696%" y1="-4.47377772%" x2="37.4626696%" y2="88.1056106%" id="linearGradient-5">
            <stop stop-color="#00FF80" offset="0%"></stop>
            <stop stop-color="#00B395" offset="100%"></stop>
        </linearGradient>
    </defs>
    <g id="Final" stroke="none" stroke-width="1" fill="none" fill-rule="evenodd">
        <g id="Full---Color" transform="translate(-271.000000, -82.000000)">
            <g id="Group-2" transform="translate(271.000000, 82.000000)">
                <path d="M278.88,310.68 C269.679954,310.68 262.740023,309.080016 258.06,305.88 C253.379977,302.679984 251.04,298.520026 251.04,293.4 C251.04,290.919988 251.719993,288.940007 253.08,287.46 C254.440007,285.979993 256.599985,285.24 259.56,285.24 C260.040002,285.24 260.999993,285.319999 262.44,285.48 C262.199999,286.280004 262.08,287.199995 262.08,288.24 C262.08,288.800003 262.159999,289.799993 262.32,291.24 C262.800002,295.32002 264.599984,298.719986 267.72,301.44 C270.840016,304.160014 275.119973,305.52 280.56,305.52 C285.040022,305.52 288.679986,304.380011 291.48,302.1 C294.280014,299.819989 295.68,296.520022 295.68,292.2 C295.68,289.319986 295.040006,286.820011 293.76,284.7 C292.479994,282.579989 290.620012,280.640009 288.18,278.88 C285.739988,277.119991 282.360022,275.000012 278.04,272.52 C272.279971,269.319984 267.780016,266.500012 264.54,264.06 C261.299984,261.619988 258.740009,258.840016 256.86,255.72 C254.979991,252.599984 254.04,248.880022 254.04,244.56 C254.04,237.599965 256.579975,232.420017 261.66,229.02 C266.740025,225.619983 273.23996,223.92 281.16,223.92 C288.680038,223.92 294.699977,225.179987 299.22,227.7 C303.740023,230.220013 306,233.759977 306,238.32 C306,242.480021 303.760022,244.679999 299.28,244.92 C298.959998,245 298.480003,245.04 297.84,245.04 C297.199997,245.04 296.320006,244.960001 295.2,244.8 C295.28,244.399998 295.32,243.880003 295.32,243.24 C295.32,241.399991 295.040003,239.880006 294.48,238.68 C293.999998,235.719985 292.480013,233.360009 289.92,231.6 C287.359987,229.839991 283.960021,228.96 279.72,228.96 C276.119982,228.96 273.020013,229.819991 270.42,231.54 C267.819987,233.260009 266.52,236.07998 266.52,240 C266.52,244.00002 267.899986,247.399986 270.66,250.2 C273.420014,253.000014 278.319965,256.319981 285.36,260.16 C290.240024,262.880014 294.299984,265.439988 297.54,267.84 C300.780016,270.240012 303.43999,273.099983 305.52,276.42 C307.60001,279.740017 308.64,283.559978 308.64,287.88 C308.64,292.040021 307.580011,295.839983 305.46,299.28 C303.339989,302.720017 300.040022,305.47999 295.56,307.56 C291.079978,309.64001 285.520033,310.68 278.88,310.68 Z M340.8,310.56 C337.119982,310.56 334.720006,309.040015 333.6,306 L318.36,256.08 C317.159994,252.719983 316.040005,250.480006 315,249.36 C316.840009,247.35999 319.359984,246.36 322.56,246.36 C324.56001,246.36 326.259993,246.799996 327.66,247.68 C329.060007,248.560004 329.959998,249.839992 330.36,251.52 L342.96,301.44 L353.76,255.84 C354.080002,253.91999 354.24,252.320006 354.24,251.04 C354.24,249.599993 353.960003,248.480004 353.4,247.68 C355.40001,246.879996 358.279981,246.400001 362.04,246.24 C367.000025,246.24 369.919996,247.799984 370.8,250.92 L383.04,301.44 L394.2,255.84 C394.680002,253.75999 394.92,252.160006 394.92,251.04 C394.92,249.759994 394.640003,248.640005 394.08,247.68 C396.240011,246.799996 398.479988,246.36 400.8,246.36 C403.280012,246.36 405.099994,246.779996 406.26,247.62 C407.420006,248.460004 408,249.83999 408,251.76 C408,254.240012 407.560004,256.679988 406.68,259.08 L389.88,308.52 C386.679984,309.880007 383.720014,310.56 381,310.56 C379.239991,310.56 377.680007,310.200004 376.32,309.48 C374.959993,308.759996 374.120002,307.600008 373.8,306 L362.04,259.56 L350.28,308.52 C347.079984,309.880007 343.920016,310.56 340.8,310.56 Z M475.08,298.32 C476.040005,299.600006 476.52,301.079992 476.52,302.76 C476.52,304.84001 475.600009,306.599993 473.76,308.04 C471.919991,309.480007 469.560014,310.2 466.68,310.2 C462.75998,310.2 459.80001,308.860013 457.8,306.18 C455.79999,303.499987 454.76,299.16003 454.68,293.16 C452.279988,298.360026 449.000021,302.519984 444.84,305.64 C440.679979,308.760016 435.920027,310.32 430.56,310.32 C425.919977,310.32 422.180014,309.060013 419.34,306.54 C416.499986,304.019987 415.08,300.600022 415.08,296.28 C415.08,291.239975 416.999981,287.080016 420.84,283.8 C424.680019,280.519984 429.59997,278.040008 435.6,276.36 C441.60003,274.679992 447.719969,273.919999 453.96,274.08 L453.96,271.08 C453.96,264.119965 453.00001,259.000016 451.08,255.72 C449.15999,252.439984 445.960022,250.8 441.48,250.8 C438.439985,250.8 435.980009,251.519993 434.1,252.96 C432.219991,254.400007 431.28,256.759984 431.28,260.04 C431.28,261.880009 431.639996,263.599992 432.36,265.2 C433.080004,266.800008 434.279992,267.999996 435.96,268.8 C435.159996,269.680004 434.100007,270.339998 432.78,270.78 C431.459993,271.220002 430.080007,271.44 428.64,271.44 C425.439984,271.44 422.86001,270.380011 420.9,268.26 C418.93999,266.139989 417.96,263.560015 417.96,260.52 C417.96,255.799976 420.119978,252.180013 424.44,249.66 C428.760022,247.139987 434.719962,245.88 442.32,245.88 C450.960043,245.88 457.29998,247.939979 461.34,252.06 C465.38002,256.180021 467.4,262.759955 467.4,271.8 L467.4,293.88 C467.4,298.120021 468.759986,300.24 471.48,300.24 C472.120003,300.24 472.779997,300.080002 473.46,299.76 C474.140003,299.439998 474.679998,298.960003 475.08,298.32 Z M436.56,301.56 C439.200013,301.56 441.899986,300.500011 444.66,298.38 C447.420014,296.259989 449.719991,293.440018 451.56,289.92 C453.400009,286.399982 454.32,282.64002 454.32,278.64 C451.519986,278.479999 448.680014,278.619998 445.8,279.06 C442.919986,279.500002 440.44001,280.199995 438.36,281.16 C435.559986,282.360006 433.380008,283.97999 431.82,286.02 C430.259992,288.06001 429.48,290.439986 429.48,293.16 C429.48,295.560012 430.059994,297.559992 431.22,299.16 C432.380006,300.760008 434.159988,301.56 436.56,301.56 Z M504.24,310.56 C496.719962,310.56 491.040019,309.280013 487.2,306.72 C483.359981,304.159987 481.44,300.720022 481.44,296.4 C481.44,294.239989 482.059994,292.400008 483.3,290.88 C484.540006,289.359992 486.479987,288.6 489.12,288.6 C489.600002,288.6 490.399994,288.679999 491.52,288.84 C491.279999,289.800005 491.16,290.679996 491.16,291.48 C491.16,292.440005 491.279999,293.479994 491.52,294.6 C491.920002,297.800016 493.339988,300.39999 495.78,302.4 C498.220012,304.40001 501.559979,305.4 505.8,305.4 C509.560019,305.4 512.599988,304.700007 514.92,303.3 C517.240012,301.899993 518.4,299.840014 518.4,297.12 C518.4,295.279991 517.860005,293.660007 516.78,292.26 C515.699995,290.859993 514.360008,289.680005 512.76,288.72 C511.159992,287.759995 508.880015,286.560007 505.92,285.12 C505.279997,284.879999 504.320006,284.440003 503.04,283.8 C498.719978,281.79999 495.300013,280.020008 492.78,278.46 C490.259987,276.899992 488.100009,274.800013 486.3,272.16 C484.499991,269.519987 483.6,266.280019 483.6,262.44 C483.6,256.839972 485.759978,252.660014 490.08,249.9 C494.400022,247.139986 499.879967,245.76 506.52,245.76 C513.160033,245.76 518.399981,246.77999 522.24,248.82 C526.080019,250.86001 528,253.799981 528,257.64 C528,259.400009 527.500005,260.899994 526.5,262.14 C525.499995,263.380006 523.920011,264.04 521.76,264.12 C521.359998,264.2 520.840003,264.24 520.2,264.24 C519.799998,264.24 519.040006,264.160001 517.92,264 C518,263.519998 518.04,262.800005 518.04,261.84 C518.04,260.079991 517.800002,258.760004 517.32,257.88 C516.839998,255.639989 515.62001,253.900006 513.66,252.66 C511.69999,251.419994 509.160016,250.8 506.04,250.8 C503.079985,250.8 500.58001,251.399994 498.54,252.6 C496.49999,253.800006 495.48,255.639988 495.48,258.12 C495.48,260.360011 496.139993,262.279992 497.46,263.88 C498.780007,265.480008 500.39999,266.839994 502.32,267.96 C504.24001,269.080006 506.959982,270.479992 510.48,272.16 C515.360024,274.480012 518.999988,276.339993 521.4,277.74 C523.800012,279.140007 525.95999,281.039988 527.88,283.44 C529.80001,285.840012 530.76,288.759983 530.76,292.2 C530.76,297.320026 528.620021,301.659982 524.34,305.22 C520.059979,308.780018 513.360046,310.56 504.24,310.56 Z M560.04,247.56 C561.560008,247.56 563.639987,247.52 566.28,247.44 C568.920013,247.36 570.999992,247.28 572.52,247.2 L572.4,250.44 C572.32,251.480005 571.980003,252.299997 571.38,252.9 C570.779997,253.500003 570.000005,253.8 569.04,253.8 L557.76,253.8 L557.76,257.76 L557.64,293.88 C557.64,298.200022 559.519981,300.36 563.28,300.36 C564.400006,300.36 565.459995,300.180002 566.46,299.82 C567.460005,299.459998 568.119998,298.960003 568.44,298.32 C569.480005,299.840008 570,301.319993 570,302.76 C570,305.000011 568.900011,306.819993 566.7,308.22 C564.499989,309.620007 561.680017,310.32 558.24,310.32 C553.919978,310.32 550.560012,308.960014 548.16,306.24 C545.759988,303.519986 544.56,299.760024 544.56,294.96 L544.56,253.8 L542.88,253.8 C541.839995,253.8 540.640007,253.84 539.28,253.92 C537.919993,254 536.720005,254.119999 535.68,254.28 L535.8,250.8 C535.88,249.759995 536.239997,248.960003 536.88,248.4 C537.520003,247.839997 538.319995,247.56 539.28,247.56 L544.56,247.56 L544.56,238.44 C544.56,236.35999 545.279993,234.700006 546.72,233.46 C548.160007,232.219994 549.999989,231.6 552.24,231.6 C555.040014,231.6 557.519989,232.55999 559.68,234.48 C558.719995,238.000018 558.120001,242.359974 557.88,247.56 L560.04,247.56 Z M635.76,293.28 C635.76,299.520031 636.399994,304.279984 637.68,307.56 C635.519989,309.56001 633.040014,310.56 630.24,310.56 C627.999989,310.56 626.180007,309.920006 624.78,308.64 C623.379993,307.359994 622.68,305.68001 622.68,303.6 L622.68,272.28 C622.68,265.479966 621.900008,260.460016 620.34,257.22 C618.779992,253.979984 616.04002,252.36 612.12,252.36 C609.559987,252.36 607.180011,253.37999 604.98,255.42 C602.779989,257.46001 601.000007,260.579979 599.64,264.78 C598.279993,268.980021 597.6,274.199969 597.6,280.44 C597.6,289.880047 597.699999,296.119985 597.9,299.16 C598.100001,302.200015 598.719995,305.039987 599.76,307.68 C599.039996,308.400004 598.040006,309.059997 596.76,309.66 C595.479994,310.260003 594.000008,310.56 592.32,310.56 C590.079989,310.56 588.260007,309.880007 586.86,308.52 C585.459993,307.159993 584.76,305.320012 584.76,303 L584.64,228.12 C584.64,225.879989 585.299993,224.180006 586.62,223.02 C587.940007,221.859994 589.719989,221.28 591.96,221.28 C593.560008,221.28 595.059993,221.579997 596.46,222.18 C597.860007,222.780003 598.999996,223.439996 599.88,224.16 C598.999996,227.040014 598.400002,230.319982 598.08,234 C597.759998,237.680018 597.56,242.439971 597.48,248.28 L597.48,258.84 C599.160008,254.679979 601.619984,251.480011 604.86,249.24 C608.100016,246.999989 611.959978,245.88 616.44,245.88 C623.000033,245.88 627.839984,247.91998 630.96,252 C634.080016,256.08002 635.64,262.199959 635.64,270.36 L635.76,293.28 Z" id="Swasth" fill="#5C5C5C"></path>
                <g id="Group">
                    <path d="M159.007668,208.596842 L159.007668,148.403158 C251.589593,142.908338 304.587037,129.440619 318,108 C311.384784,164.677093 258.38734,198.209374 159.007668,208.596842 Z M158.992332,148.403158 L158.992332,208.596842 C66.410407,214.091662 13.4129632,227.559381 5.68434189e-14,249 C6.61521599,192.322907 59.6126598,158.790626 158.992332,148.403158 Z" id="Combined-Shape" fill="url(#linearGradient-1)"></path>
                    <g id="Combined-Shape" opacity="0.6" transform="translate(120.000000, 135.000000)">
                        <mask id="mask-3" fill="white">
                            <use xlink:href="#path-2"></use>
                        </mask>
                        <g id="Mask"></g>
                        <path d="M40.53912,75.0089568 L40.53912,14.8150633 C134.166854,9.32022411 187.762959,-4.14754209 201.327436,-25.5882353 C194.637494,31.0890552 141.041389,64.6214526 40.53912,75.0089568 Z M40.5236098,14.8150633 L40.5236098,75.0089568 C-53.1041241,80.503796 -106.700229,93.9715622 -120.264706,115.412255 C-113.574764,58.7349649 -59.9786589,25.2025676 40.5236098,14.8150633 Z" fill="url(#linearGradient-4)" mask="url(#mask-3)"></path>
                    </g>
                    <path d="M189.163009,186.211658 L134.8409,170.772868 C153.478695,75.9560567 154.832293,19.0317673 138.901694,0 C188.364198,21.2110399 205.11797,83.2815926 189.163009,186.211658 Z M134.836991,170.788342 L189.1591,186.227132 C170.521305,281.043943 169.167707,337.968233 185.098306,357 C135.635802,335.78896 118.88203,273.718407 134.836991,170.788342 Z" id="Combined-Shape" fill="url(#linearGradient-5)" transform="translate(162.000000, 178.500000) scale(-1, 1) translate(-162.000000, -178.500000) "></path>
                </g>
            </g>
        </g>
    </g>
</svg>