<?xml version="1.0" encoding="iso-8859-1"?>
<!-- Generator: Adobe Illustrator 19.0.0, SVG Export Plug-In . SVG Version: 6.00 Build 0)  -->
<svg version="1.1" id="Layer_1" xmlns="http://www.w3.org/2000/svg" xmlns:xlink="http://www.w3.org/1999/xlink" x="0px" y="0px"
	 viewBox="0 0 505 505" style="enable-background:new 0 0 505 505;" xml:space="preserve">
<circle style="fill:#90DFAA;" cx="252.5" cy="252.5" r="252.5"/>
<path style="fill:#FFFFFF;" d="M415.9,393.8H89.1c-0.7,0-1.2-0.5-1.2-1.2V112.4c0-0.7,0.5-1.2,1.2-1.2h326.8c0.7,0,1.2,0.5,1.2,1.2
	v280.3C417.1,393.3,416.6,393.8,415.9,393.8z"/>
<rect x="113" y="133.4" style="fill:#84DBFF;" width="279" height="193.7"/>
<polygon style="fill:#324A5E;" points="291.2,327.2 202.1,215.9 113,327.2 "/>
<polygon style="fill:#2B3B4E;" points="202.1,215.9 166.8,327.2 113,327.2 "/>
<polygon style="fill:#324A5E;" points="392,327.2 302.9,196.7 213.8,327.2 "/>
<polygon style="fill:#2B3B4E;" points="302.9,196.7 267.6,327.2 213.8,327.2 "/>
<circle style="fill:#FFD05B;" cx="246.3" cy="196.7" r="17.9"/>
<g>
	<path style="fill:#54C0EB;" d="M175.1,154.9c-1.8-0.4-3.8,0-5.6,0.9s-3.2,2.4-4.3,3.9c-1.2,1.6-2,3.3-2.8,5.1
		c-0.1,0.1-0.1,0.3-0.2,0.4c-0.9-1.5-1.9-2.9-3.2-4.1c-2.5-2.5-5.8-4.1-9-4.9c-3.3-0.9-6.6-1-9.9-0.8c-3.3,0.3-6.5,1-9.4,2.2
		c3.2-0.2,6.4-0.1,9.4,0.1c3.1,0.3,6.1,0.8,8.9,1.8c2.8,1,5.3,2.4,7.3,4.4c2,1.9,3.4,4.5,4.4,7.2v0.1c0.2,0.6,0.8,1.1,1.5,1.2
		c1,0.1,1.9-0.6,2-1.6c0.2-1.6,0.6-3.4,1.1-5c0.5-1.7,1.1-3.3,1.9-4.8c0.8-1.5,1.8-2.9,3-4.1C171.6,155.9,173.3,155.2,175.1,154.9z"
		/>
	<path style="fill:#54C0EB;" d="M199.3,178.1c-1.5,0.7-2.6,1.9-3.6,3.1c-0.9,1.2-1.6,2.5-2.2,3.8c-0.6-1-1.4-2-2.2-2.8
		c-2.1-2-4.7-3.3-7.4-4s-5.4-0.8-8-0.5s-5.2,0.9-7.5,2c5.1,0,10.2,0.3,14.6,1.9c2.2,0.8,4.2,1.9,5.7,3.5c1.6,1.5,2.7,3.5,3.5,5.6
		l0.1,0.2c0.2,0.6,0.8,1.1,1.5,1.2c1,0.1,1.9-0.6,2-1.6c0.1-1.3,0.5-2.7,0.8-4s0.8-2.6,1.4-3.8c1.2-2.4,3-4.6,6-5.1
		C202.4,177.1,200.7,177.3,199.3,178.1z"/>
</g>
<g>
</g>
<g>
</g>
<g>
</g>
<g>
</g>
<g>
</g>
<g>
</g>
<g>
</g>
<g>
</g>
<g>
</g>
<g>
</g>
<g>
</g>
<g>
</g>
<g>
</g>
<g>
</g>
<g>
</g>
</svg>
