<?xml version="1.0" encoding="iso-8859-1"?>
<!-- Generator: Adobe Illustrator 19.0.0, SVG Export Plug-In . SVG Version: 6.00 Build 0)  -->
<svg version="1.1" id="Layer_1" xmlns="http://www.w3.org/2000/svg" xmlns:xlink="http://www.w3.org/1999/xlink" x="0px" y="0px"
	 viewBox="0 0 512 512" style="enable-background:new 0 0 512 512;" xml:space="preserve">
<path style="fill:#78909C;" d="M507.242,206.72C484.267,88.918,380.526,0,256,0C114.616,0,0,114.615,0,256
	c0,119.42,81.771,219.738,192.374,248.026L507.242,206.72z"/>
<path style="fill:#455A64;" d="M512,256c0-16.859-1.647-33.331-4.758-49.28L370.484,69.963l-20.67,20.67l-20.67-20.67
	l-20.671,20.671l-20.671-20.671l-20.67,20.67l-20.67-20.67l-20.67,20.67l-20.671-20.67l-20.67,20.67l-20.67-20.67l-41.343,364.124
	l69.939,69.939C212.718,509.23,234.035,512,256,512C397.384,512,512,397.384,512,256z"/>
<polygon style="fill:#FFEB3B;" points="256,89.043 233.739,144.696 389.565,122.435 389.565,89.043 "/>
<polygon style="fill:#FFF59D;" points="122.435,89.043 122.435,122.435 256,144.696 256,89.043 "/>
<polygon style="fill:#FFFDE7;" points="256,122.435 211.478,256 256,434.087 322.783,434.087 345.043,389.565 389.565,367.304 
	389.565,122.435 "/>
<rect x="122.435" y="122.435" style="fill:#FFFFFF;" width="133.565" height="311.652"/>
<polygon style="fill:#FFEB3B;" points="322.783,434.087 322.783,367.304 389.565,367.304 "/>
<polygon style="fill:#455A64;" points="256,166.957 244.87,178.087 256,189.217 345.043,189.217 345.043,166.957 "/>
<rect x="166.957" y="166.957" style="fill:#78909C;" width="89.043" height="22.261"/>
<polygon style="fill:#455A64;" points="256,211.478 244.87,222.609 256,233.739 345.043,233.739 345.043,211.478 "/>
<rect x="166.957" y="211.478" style="fill:#78909C;" width="89.043" height="22.261"/>
<polygon style="fill:#455A64;" points="256,300.522 244.87,311.652 256,322.783 345.043,322.783 345.043,300.522 "/>
<rect x="166.957" y="300.522" style="fill:#78909C;" width="89.043" height="22.261"/>
<polygon style="fill:#455A64;" points="256,256 244.87,267.13 256,278.261 345.043,278.261 345.043,256 "/>
<rect x="166.957" y="256" style="fill:#78909C;" width="89.043" height="22.261"/>
<g>
	<rect x="141.512" y="69.963" style="fill:#CFD8DC;" width="22.261" height="35.617"/>
	<rect x="224.2" y="69.963" style="fill:#CFD8DC;" width="22.261" height="35.617"/>
	<rect x="182.862" y="69.963" style="fill:#CFD8DC;" width="22.261" height="35.617"/>
</g>
<g>
	<rect x="265.539" y="69.963" style="fill:#B0BEC5;" width="22.261" height="35.617"/>
	<rect x="306.877" y="69.963" style="fill:#B0BEC5;" width="22.261" height="35.617"/>
	<rect x="348.227" y="69.963" style="fill:#B0BEC5;" width="22.261" height="35.617"/>
</g>
<g>
</g>
<g>
</g>
<g>
</g>
<g>
</g>
<g>
</g>
<g>
</g>
<g>
</g>
<g>
</g>
<g>
</g>
<g>
</g>
<g>
</g>
<g>
</g>
<g>
</g>
<g>
</g>
<g>
</g>
</svg>
