<svg id="Layer_1" enable-background="new 0 0 128 128" height="512" viewBox="0 0 128 128" width="512" xmlns="http://www.w3.org/2000/svg"><g><path d="m116.928 7.5h-81.625c-2.757 0-5 2.243-5 5l-.006 28.824h-15.226c-2.757 0-5 2.243-5 5v67.064c0 6.127 4.984 11.112 11.111 11.112h89.639c6.124 0 11.106-4.982 11.106-11.106v-100.894c.001-2.757-2.242-5-4.999-5z" fill="#e6e7e8"/><g><g><path d="m116.928 8.5v100.894c0 5.582-4.525 10.106-10.106 10.106h-89.639c5.588 0 10.12-4.532 10.12-10.106v-100.894c0-2.209 1.791-4 4-4h81.625c2.209 0 4 1.791 4 4z" fill="#d4fbff"/><g><path d="m112.928 4.5h-81.625c-2.209 0-4 1.791-4 4v3c0-2.209 1.791-4 4-4h81.625c2.209 0 4 1.791 4 4v-3c0-2.209-1.791-4-4-4z" fill="#fff"/></g><path d="m17.184 119.5c-5.585 0-10.113-4.528-10.113-10.113v-67.064c0-2.209 1.791-4 4-4h16.225v71.064c.001 5.586-4.527 10.113-10.112 10.113z" fill="#6dc9f7"/></g><g><path d="m35.948 17.89h72.52v19.363h-72.52z" fill="#0089ef"/><g><path d="m35.948 45.48h33.525v32.525h-33.525z" fill="#fa759e"/><path d="m61.184 58.501h-5.232v-5.232c0-.363-.295-.658-.658-.658h-5.167c-.363 0-.658.295-.658.658v5.232h-5.232c-.363 0-.658.295-.658.658v5.167c0 .363.295.658.658.658h5.232v5.232c0 .363.295.658.658.658h5.167c.363 0 .658-.295.658-.658v-5.232h5.232c.363 0 .658-.295.658-.658v-5.167c0-.363-.295-.658-.658-.658z" fill="#6dc9f7"/></g><g fill="#3a2c60"><path d="m112.929 3.5h-81.626c-2.757 0-5 2.243-5 5l-.006 28.824h-15.225c-2.757 0-5 2.243-5 5v67.064c0 6.127 4.984 11.112 11.111 11.112h89.639c6.124 0 11.106-4.982 11.106-11.106v-19.642c0-.552-.447-1-1-1s-1 .448-1 1v19.642c0 5.021-4.085 9.106-9.106 9.106h-83.296c2.879-2.01 4.771-5.342 4.771-9.112l.006-100.888c0-1.654 1.346-3 3-3h81.626c1.654 0 3 1.346 3 3v67.61c0 .552.447 1 1 1s1-.448 1-1v-67.61c0-2.757-2.244-5-5-5zm-95.745 115c-5.025 0-9.112-4.088-9.112-9.112v-67.064c0-1.654 1.346-3 3-3h15.225v70.064c0 5.024-4.088 9.112-9.113 9.112z"/><path d="m116.929 78.752c-.553 0-1 .448-1 1v6.625c0 .552.447 1 1 1s1-.448 1-1v-6.625c0-.552-.448-1-1-1z"/><path d="m68.972 85.11h-32.524c-.553 0-1 .448-1 1s.447 1 1 1h32.524c.553 0 1-.448 1-1s-.447-1-1-1z"/><path d="m68.972 95.11h-32.524c-.553 0-1 .448-1 1s.447 1 1 1h32.524c.553 0 1-.448 1-1s-.447-1-1-1z"/><path d="m68.972 105.11h-32.524c-.553 0-1 .448-1 1s.447 1 1 1h32.524c.553 0 1-.448 1-1s-.447-1-1-1z"/><path d="m55.294 51.611h-5.167c-.914 0-1.658.744-1.658 1.658v4.232h-4.231c-.914 0-1.658.744-1.658 1.658v5.167c0 .915.744 1.658 1.658 1.658h4.231v4.231c0 .915.744 1.658 1.658 1.658h5.167c.914 0 1.658-.744 1.658-1.658v-4.231h4.232c.914 0 1.657-.744 1.657-1.658v-5.167c0-.914-.743-1.658-1.657-1.658h-4.232v-4.232c0-.914-.744-1.658-1.658-1.658zm5.548 7.89v4.483h-4.89c-.553 0-1 .448-1 1v4.89h-4.483v-4.89c0-.552-.447-1-1-1h-4.89v-4.483h4.89c.553 0 1-.448 1-1v-4.89h4.483v4.89c0 .552.447 1 1 1z"/><path d="m108.468 55.11h-32.525c-.553 0-1 .448-1 1s.447 1 1 1h32.524c.553 0 1-.448 1-1s-.447-1-.999-1z"/><path d="m108.468 45.11h-32.525c-.553 0-1 .448-1 1s.447 1 1 1h32.524c.553 0 1-.448 1-1s-.447-1-.999-1z"/><path d="m108.468 65.11h-32.525c-.553 0-1 .448-1 1s.447 1 1 1h32.524c.553 0 1-.448 1-1s-.447-1-.999-1z"/><path d="m108.468 75.11h-32.525c-.553 0-1 .448-1 1s.447 1 1 1h32.524c.553 0 1-.448 1-1s-.447-1-.999-1z"/><path d="m108.468 85.11h-32.525c-.553 0-1 .448-1 1s.447 1 1 1h32.524c.553 0 1-.448 1-1s-.447-1-.999-1z"/><path d="m108.468 95.11h-32.525c-.553 0-1 .448-1 1s.447 1 1 1h32.524c.553 0 1-.448 1-1s-.447-1-.999-1z"/><path d="m108.468 105.11h-32.525c-.553 0-1 .448-1 1s.447 1 1 1h32.524c.553 0 1-.448 1-1s-.447-1-.999-1z"/></g></g></g></g></svg>