<svg id="Filled_Outline" height="512" viewBox="0 0 64 64" width="512" xmlns="http://www.w3.org/2000/svg" data-name="Filled Outline"><path d="m47.827 49.046-7.827-3.046a4.412 4.412 0 0 1 -3-3.809v-4.191h-10v4.191a4.412 4.412 0 0 1 -3 3.809l-7.827 3.046c-3.113 1.176-6.173 4.154-6.173 7.483v5.471h44v-5.471c0-3.329-3.06-6.307-6.173-7.483z" fill="#f5f5f5"/><path d="m18.214 13c-.434 1.65-6.618 20.46-3.176 23a28.876 28.876 0 0 0 13.762 5h6.4a28.876 28.876 0 0 0 13.764-5c3.442-2.54-2.742-21.35-3.176-23z" fill="#42210b"/><path d="m13 56.529a8 8 0 0 1 5.173-7.483l8.185-3.093a4 4 0 0 0 2.642-3.762v-4.191h-2v4.191a4.412 4.412 0 0 1 -3 3.809l-7.827 3.046a8 8 0 0 0 -5.173 7.483v5.471h2z" fill="#fff"/><path d="m40 46a4.412 4.412 0 0 1 -3-3.809v-4.191h-10v4.191a4.412 4.412 0 0 1 -3 3.809v7l8 8 8-8z" fill="#f4cda5"/><path d="m24 47v.844l2.358-.891a4 4 0 0 0 2.642-3.762v-4.191h-2v4.191a4.412 4.412 0 0 1 -3 3.809z" fill="#fadcb4"/><rect fill="#f4cda5" height="6" rx="3" width="26" x="19" y="25"/><path d="m42 25v5.2c0 5.94-6.67 10.8-10 10.8-1.66 0-4.16-1.22-6.25-3.17a10.853 10.853 0 0 1 -3.75-7.63v-5.2c10-2 14-6 14-6z" fill="#fadcb4"/><path d="m24 29v-5.269c-.64.106-1.3.2-2 .269v5.2a10.853 10.853 0 0 0 3.75 7.63c2.09 1.95 4.59 3.17 6.25 3.17a11.106 11.106 0 0 1 -8-11z" fill="#f9e5cf"/><path d="m24 46-4 6 4 2-2 4 10 3 10-3-2-3 4-3-4-6-8 14z" fill="#e0e0e0"/><path d="m49 8-4 10c-3.375-2.283-10-3-13-3s-9.625.717-13 3l-4-10c7-4 11.75-5 17-5s10 1 17 5z" fill="#f5f5f5"/><path d="m49 48.173-9-3.173a3.006 3.006 0 0 1 -2-2.829v-.464a27.25 27.25 0 0 0 11.636-4.918c2.33-1.822 1.661-8.716-2.16-22.285l2.453-6.131a1 1 0 0 0 -.433-1.24c-7.453-4.26-12.385-5.133-17.496-5.133s-10.043.873-17.5 5.132a1 1 0 0 0 -.433 1.24l2.457 6.128c-3.821 13.569-4.49 20.463-2.159 22.286a27.252 27.252 0 0 0 11.635 4.92v.464a3.006 3.006 0 0 1 -2 2.83l-8.993 3.174a9.013 9.013 0 0 0 -6.007 8.486v5.34h2v-5.34a7.011 7.011 0 0 1 4.671-6.6l5.782-2.041-2.285 3.427a1 1 0 0 0 .385 1.45l3.105 1.552-1.553 3.106a1 1 0 0 0 .608 1.405l10 3a1 1 0 0 0 .574 0l10-3a1 1 0 0 0 .545-1.513l-1.476-2.213 3.244-2.433a1 1 0 0 0 .232-1.355l-2.285-3.427 5.782 2.041a7.011 7.011 0 0 1 4.671 6.601v5.34h2v-5.34a9.013 9.013 0 0 0 -6-8.487zm-22.564-11.073c-1.284-1.207-3.436-3.711-3.436-6.9v-5.307c7.077-.9 11.1-3.74 12.8-5.272a15.744 15.744 0 0 0 5.2 4.979v5.6c0 5.264-6.036 9.8-9 9.8-1.184 0-3.432-.908-5.564-2.9zm5.564-33.1c4.619 0 9.1.77 15.746 4.442l-3.246 8.106c-3.99-2.071-10.243-2.548-12.5-2.548s-8.51.477-12.5 2.548l-3.246-8.106c6.646-3.672 11.127-4.442 15.746-4.442zm-16.4 31.212c-.52-.406-1.79-2.887 2.156-17.635l.318.795a1 1 0 0 0 1.49.456c3.042-2.06 9.243-2.828 12.436-2.828s9.394.768 12.439 2.828a1 1 0 0 0 1.49-.456l.318-.795c3.946 14.747 2.676 17.229 2.157 17.634a25.5 25.5 0 0 1 -10.404 4.465v-.314a12.967 12.967 0 0 0 4.8-7.362h.2a4 4 0 0 0 0-8 1 1 0 0 0 -.553-.895 14.022 14.022 0 0 1 -5.553-5.554 1.007 1.007 0 0 0 -.788-.543 1.019 1.019 0 0 0 -.884.364c-.038.047-3.919 4.693-13.322 5.633a1 1 0 0 0 -.9 1 4 4 0 0 0 0 8h.184a12.877 12.877 0 0 0 3.883 6.562c.3.282.616.548.933.8v.311a25.506 25.506 0 0 1 -10.4-4.466zm27.4-9.212a2 2 0 0 1 0 4zm-24 2a2 2 0 0 1 2-2v4a2 2 0 0 1 -2-2zm4.426 29.384 1.474-2.937a1 1 0 0 0 -.448-1.342l-2.992-1.493 2.475-3.712 6.644 11.63zm8.574.6-6.55-11.462a5.007 5.007 0 0 0 2.55-4.352v-1.452a8.623 8.623 0 0 0 4 1.282 8.777 8.777 0 0 0 4-1.293v1.463a5.007 5.007 0 0 0 2.55 4.352zm7.4-3.784a1 1 0 0 0 -.232 1.355l1.25 1.876-7 2.1 6.647-11.631 2.579 3.867z"/><path d="m35.627 35.779-1.254-1.558a4.018 4.018 0 0 1 -4.746 0l-1.254 1.558a5.974 5.974 0 0 0 7.254 0z"/><circle cx="27" cy="28" r="2"/><circle cx="37" cy="28" r="2"/><path d="m31 12h2v-2h2v-2h-2v-2h-2v2h-2v2h2z"/></svg>