<?xml version="1.0" encoding="iso-8859-1"?>
<!-- Generator: Adobe Illustrator 19.0.0, SVG Export Plug-In . SVG Version: 6.00 Build 0)  -->
<svg version="1.1" id="Layer_1" xmlns="http://www.w3.org/2000/svg" xmlns:xlink="http://www.w3.org/1999/xlink" x="0px" y="0px"
	 viewBox="0 0 507.2 507.2" style="enable-background:new 0 0 507.2 507.2;" xml:space="preserve">
<path style="fill:#DF5C4E;" d="M61.799,281.2c0,106,86,192,192,192s192-86,192-192s-86-192-192-192S61.799,175.6,61.799,281.2z
	 M173.399,142.4h0.4c22.4-12.8,48.4-20.4,76.4-21.2c0.4-0.4,0.8-0.4,1.2-0.4s0.8,0,1.2,0.4c0.4,0,0.8,0,1.2,0c29.2,0,56.4,8,80,21.2
	c0,0,0,0,0.4,0c0,0,0,0,0.4,0c47.6,27.6,80,79.6,80,138.4c0,0.4,0,1.2,0,1.6l0,0c0,0,0,0,0,0.4c-1.2,87.6-72.4,158-160,158
	c-0.8,0-1.2,0-2,0l0,0l0,0c-28.4-0.4-54.8-8-77.6-21.2c0,0,0,0-0.4,0c0,0,0,0-0.4-0.4c-46.8-27.2-78.8-77.6-79.6-135.6
	c-0.4-0.4-0.4-0.8-0.4-1.2c0-0.4,0-0.8,0.4-1.2c0-0.4,0-0.4,0-0.8C93.399,222.4,125.399,170.8,173.399,142.4
	C173.399,142.8,173.399,142.8,173.399,142.4z"/>
<g>
	<path style="fill:#CCCCCC;" d="M348.599,277.2c0.4,0,0.8,0,1.2,0C349.399,277.2,348.999,277.2,348.599,277.2z"/>
	<path style="fill:#CCCCCC;" d="M257.399,185.2c0,0.4,0,0.8,0,1.2C257.399,186,257.399,185.6,257.399,185.2z"/>
</g>
<path style="fill:#F4EFEF;" d="M128.599,351.2c0.8-0.4,2-0.4,2.8,0.8c0.4,0.8,0.4,2-0.8,2.8l-11.2,6.4c13.2,22.4,32,41.2,54.4,54.4
	l6.4-11.2c0.4-0.8,1.6-1.2,2.8-0.8c0.8,0.4,1.2,1.6,0.8,2.8l-6.4,11.2c21.6,12,44.4,19.2,72.4,20V404c0-1.2,0.8-2,2-2s2,0.8,2,2
	v37.6c0,0-0.4,0,0,0c27.6,0,53.6-9.2,76.4-22l-6-11.6c-0.4-0.8-0.4-2.8,0.8-3.2c0.8-0.4,2-0.4,2.8,0.4l6,10.4
	c22.4-13.2,41.2-32,54.4-54.4l-11.2-6.4c-0.8-0.4-1.2-1.6-0.8-2.8c0.4-0.8,1.6-1.2,2.8-0.8l11.2,6.8c12-21.6,19.2-44.4,20-72.4
	h-33.6c-1.2,0-2-0.8-2-2s0.8-2,2-2h33.6c0-28-7.2-54-20-76.4l-11.2,6.4c-0.4,0-0.8,0.4-0.8,0.4c-0.8,0-1.2-0.4-1.6-1.2
	c-0.4-0.8-0.4-2,0.8-2.8l11.2-6.4c-13.2-22.4-32-41.2-54.4-54.4l-2.4,4l-4.4,7.2c-0.4,0.8-1.2,0.8-1.6,0.8c-0.4,0-0.8,0-0.8-0.4
	c-0.4,0-0.4-0.4-0.4-0.4c-0.4-0.8-0.4-1.6,0-2l4.4-7.2l2.4-3.6c-22.4-12.8-48.8-19.6-76.4-19.6l0,0v32.8c0,1.2-0.8,2-2,2s-2-0.8-2-2
	v-33.2c-28,0.8-50.8,8-72.4,20l6.4,11.2c0.4,0.8,0,2-0.8,2.8c-0.4,0-0.8,0.4-1.2,0.4c-0.8,0-1.2-0.4-1.6-0.8l-6.4-11.2
	c-22.4,13.2-41.2,32-54.4,54.4l11.2,6.4c0.8,0.4,1.2,1.6,0.8,2.8c-0.4,0.8-1.2,0.8-1.6,0.8c-0.4,0-0.8,0-0.8-0.4l-11.2-6
	c-12.8,22.4-20,48.4-20,76.4h33.2c1.2,0,2,0.8,2,2s-0.8,2-2,2h-33.2c0.8,28,7.6,50.8,20,72.4L128.599,351.2z M241.799,266
	c0-0.4,0-0.4,0-0.8V186c0-5.6,4.4-10,10-10c5.6,0,10,4.4,10,10v77.2c4,2,7.6,6,9.6,10h77.6c5.6,0,10,4.4,10,10s-4.4,10-10,10h-79.6
	v-0.4c-3.6,4.8-9.2,7.6-15.6,7.6c-10.8,0-19.2-8.8-19.2-19.6C234.199,275.2,237.399,269.6,241.799,266z"/>
<path style="fill:#E8E3E3;" d="M267.399,274.4c-1.6-3.2-4.4-6-7.6-7.2c-0.8-0.4-1.6-0.4-2-0.8c-1.2-0.4-2.8-0.8-4.4-0.8
	c-8.4,0-15.6,6.8-15.6,15.6c0,8.4,6.8,15.6,15.6,15.6c8.4,0,15.6-6.8,15.6-15.6c0-1.6-0.4-3.2-0.8-4.4
	C268.199,276,267.799,275.2,267.399,274.4z"/>
<g>
	<path style="fill:#AEB1B4;" d="M259.399,185.2c-0.4-2.8-2.8-4.8-5.6-4.8c-3.2,0-6,2.8-6,6v79.2h12v-79.2
		C259.799,186,259.399,185.6,259.399,185.2z"/>
	<path style="fill:#AEB1B4;" d="M349.799,277.6c-0.4,0-0.8,0-1.2,0h-78.8v11.2v0.8h78.8c3.2,0,6-2.8,6-6
		C354.599,280.8,352.599,278,349.799,277.6z"/>
</g>
<path style="fill:#F4AEA8;" d="M150.599,89.6l70.4-40.8c-16-26-44.8-42.4-75.2-42.4c-15.2,0-30.4,4-44,11.6
	c-20.4,11.6-34.8,30.8-41.2,53.6c-6,22-3.6,45.2,7.6,65.2l81.6-46.4v-0.8H150.599z"/>
<path style="fill:#CCCCCC;" d="M150.599,89.2L150.599,89.2L150.599,89.2z"/>
<path style="fill:#F4AEA8;" d="M446.999,71.2c-6-22.8-20.8-41.6-41.2-53.6c-13.2-7.6-28.4-12-44-12c-30.8,0-59.6,16.4-75.2,42.4
	l70.4,40.8l0,0v-0.4l82,47.2C450.199,116.8,452.999,93.6,446.999,71.2z"/>
<path style="fill:#CCCCCC;" d="M356.999,89.2L356.999,89.2L356.999,89.2z"/>
<path style="fill:#AEB1B4;" d="M132.199,496l46-34c-7.2-2.8-14-6.4-20.4-10L132.199,496z"/>
<g>
	<path style="fill:#CCCCCC;" d="M157.799,450.4l-0.8,1.6c6.8,3.6,13.6,7.2,20.8,10l1.6-1.2C172.199,457.6,165.799,454,157.799,450.4
		L157.799,450.4z"/>
	<path style="fill:#CCCCCC;" d="M179.799,460.8L179.799,460.8l-21.2-10.4l0,0C165.399,454,172.599,457.6,179.799,460.8z"/>
</g>
<path style="fill:#AEB1B4;" d="M350.199,451.6c-6.8,3.6-13.6,7.2-20.4,10l46,34L350.199,451.6z"/>
<g>
	<path style="fill:#CCCCCC;" d="M327.799,460.4l2,1.2c7.2-2.8,14-6.4,20.4-10l-0.8-1.6l0,0l0,0
		C342.199,454,334.999,457.6,327.799,460.4z"/>
	<path style="fill:#CCCCCC;" d="M348.999,450l-21.6,10.4l0,0C334.999,457.6,342.199,454,348.999,450z"/>
</g>
<path d="M253.799,479.2c-109.2,0-198-88.8-198-198s88.8-198,198-198s198,88.8,198,198C451.399,390.4,362.599,479.2,253.799,479.2z
	 M253.799,91.6c-104.8,0-190,85.2-190,190s85.2,190,190,190s190-85.2,190-190C443.399,176.8,358.199,91.6,253.799,91.6z"/>
<path d="M253.799,443.6c-89.6,0-162.4-72.8-162.4-162.4s72.8-162.4,162.4-162.4s162.4,72.8,162.4,162.4
	C415.799,370.8,342.999,443.6,253.799,443.6z M253.799,127.2c-85.2,0-154.4,69.2-154.4,154.4c0,85.2,69.2,154.4,154.4,154.4
	s154.4-69.2,154.4-154.4C407.799,196.4,338.599,127.2,253.799,127.2z"/>
<path d="M253.799,302.8c-12,0-21.6-9.6-21.6-21.6s9.6-21.6,21.6-21.6c12,0,21.6,9.6,21.6,21.6
	C274.999,293.2,265.399,302.8,253.799,302.8z M253.799,268c-7.6,0-13.6,6-13.6,13.6s6,13.6,13.6,13.6c7.6,0,13.6-6,13.6-13.6
	C266.999,274,260.999,268,253.799,268z"/>
<path d="M130.199,287.6h-32c-2.4,0-4-1.6-4-4s1.6-4,4-4h32c2.4,0,4,1.6,4,4S132.199,287.6,130.199,287.6z"/>
<path d="M410.199,287.6h-32c-2.4,0-4-1.6-4-4s1.6-4,4-4h32c2.4,0,4,1.6,4,4S412.199,287.6,410.199,287.6z"/>
<path d="M253.799,442.4c-2.4,0-4-1.6-4-4v-32c0-2.4,1.6-4,4-4c2.4,0,4,1.6,4,4v32C257.799,440.4,255.799,442.4,253.799,442.4z"/>
<path d="M253.799,161.6c-2.4,0-4-1.6-4-4v-32c0-2.4,1.6-4,4-4c2.4,0,4,1.6,4,4v32C257.799,160,255.799,161.6,253.799,161.6z"/>
<path d="M181.799,161.2c-1.2,0-2.8-0.8-3.6-2l-7.6-12.8c-1.2-2-0.4-4.4,1.6-5.6s4.4-0.4,5.6,1.6l7.6,12.8c1.2,2,0.4,4.4-1.6,5.6
	C183.399,161.2,182.599,161.2,181.799,161.2z"/>
<path d="M332.599,422.4c-1.2,0-2.8-0.8-3.6-2l-7.2-12.4c-1.2-2-0.4-4.4,1.6-5.6s4.4-0.4,5.6,1.6l7.2,12.4c1.2,2,0.4,4.4-1.6,5.6
	C334.199,422,333.399,422.4,332.599,422.4z"/>
<path d="M116.999,364c-1.2,0-2.8-0.8-3.6-2c-1.2-2-0.4-4.4,1.6-5.6l12.4-7.2c2-1.2,4.4-0.4,5.6,1.6c1.2,2,0.4,4.4-1.6,5.6l-12.4,7.2
	C118.599,364,117.799,364,116.999,364z"/>
<path d="M377.799,213.6c-1.2,0-2.8-0.8-3.6-2c-1.2-2-0.4-4.4,1.6-5.6l12.4-7.2c2-1.2,4.4-0.4,5.6,1.6c1.2,2,0.4,4.4-1.6,5.6
	l-12.4,7.2C378.999,213.6,378.599,213.6,377.799,213.6z"/>
<path d="M390.199,364c-0.8,0-1.2,0-2-0.4l-12.4-7.2c-2-1.2-2.4-3.6-1.6-5.6c1.2-2,3.6-2.4,5.6-1.6l12.4,7.2c2,1.2,2.4,3.6,1.6,5.6
	C392.999,363.6,391.399,364,390.199,364z"/>
<path d="M129.399,213.6c-0.8,0-1.2,0-2-0.4l-12.4-7.2c-2-1.2-2.4-3.6-1.6-5.6c1.2-2,3.6-2.4,5.6-1.6l12.4,7.2c2,1.2,2.4,3.6,1.6,5.6
	C132.199,212.8,130.999,213.6,129.399,213.6z"/>
<path d="M325.399,161.2c-0.8,0-1.2,0-2-0.4c-2-1.2-2.4-3.6-1.6-5.6l7.6-12.8c1.2-2,3.6-2.4,5.6-1.6c2,1.2,2.4,3.6,1.6,5.6l-7.6,12.8
	C328.199,160.4,326.599,161.2,325.399,161.2z"/>
<path d="M174.599,422.4c-0.8,0-1.2,0-2-0.4c-2-1.2-2.4-3.6-1.6-5.6l7.6-12.8c1.2-2,3.6-2.4,5.6-1.6c2,1.2,2.4,3.6,1.6,5.6l-7.6,12.8
	C177.399,421.6,175.799,422.4,174.599,422.4z"/>
<path d="M261.799,269.6c-2.4,0-4-1.6-4-4v-79.2c0-2-2-4-4-4s-4,1.6-4,4v79.2c0,2.4-1.6,4-4,4s-4-1.6-4-4v-79.2c0-6.4,5.2-12,12-12
	c6.8,0,12,5.2,12,12v79.2C265.799,268,263.799,269.6,261.799,269.6z"/>
<path d="M348.599,295.6h-78.8c-2.4,0-4-1.6-4-4s1.6-4,4-4h78.8c2,0,4-2,4-4s-1.6-4-4-4h-76.4c-2.4,0-4-1.6-4-4s1.6-4,4-4h76.4
	c6.4,0,12,5.2,12,12S355.399,295.6,348.599,295.6z"/>
<path d="M150.599,121.2c-1.2,0-2.8-0.8-3.6-2l-10.8-18.8c-1.2-2-0.4-4.4,1.6-5.6s4.4-0.4,5.6,1.6l10.8,18.8c1.2,2,0.4,4.4-1.6,5.6
	C151.799,120.8,151.399,121.2,150.599,121.2z"/>
<path d="M162.599,114c-1.2,0-2.8-0.8-3.6-2l-11.2-19.2c-1.2-2-0.4-4.4,1.6-5.6s4.4-0.4,5.6,1.6l11.2,19.2c1.2,2,0.4,4.4-1.6,5.6
	C163.799,114,163.399,114,162.599,114z"/>
<path d="M67.799,143.2c-1.2,0-2.8-0.8-3.6-2c-12.4-21.6-16-47.2-9.2-71.2s22-44.4,44-57.2c21.6-12.4,47.2-16,71.2-9.6
	c24.4,6.4,44.4,22,57.2,44c1.2,2,0.4,4.4-1.6,5.6l-156,90C68.999,143.2,68.599,143.2,67.799,143.2z M145.799,8
	c-14.8,0-29.6,4-42.8,11.6l0,0c-20,11.6-34,30-40,52.4c-5.6,20.8-3.2,42.8,6.8,62l148.8-86c-11.6-18-29.2-31.2-50-36.8
	C160.599,9.2,152.999,8,145.799,8z"/>
<path d="M356.999,121.2c-0.8,0-1.2,0-2-0.4c-2-1.2-2.4-3.6-1.6-5.6l10.8-18.8c1.2-2,3.6-2.4,5.6-1.6s2.4,3.6,1.6,5.6l-10.8,18.8
	C359.799,120.4,358.199,121.2,356.999,121.2z"/>
<path d="M344.999,114c-0.8,0-1.2,0-2-0.4c-2-1.2-2.4-3.6-1.6-5.6l11.2-19.2c1.2-2,3.6-2.4,5.6-1.6c2,1.2,2.4,3.6,1.6,5.6l-11.2,19.2
	C347.799,113.2,346.199,114,344.999,114z"/>
<path d="M439.799,143.2c-0.8,0-1.2,0-2-0.4l-156-90c-2-1.2-2.4-3.6-1.6-5.6c12.4-21.6,32.8-37.2,57.2-44c24.4-6.4,49.6-3.2,71.2,9.6
	l0,0c44.8,26,60.4,83.6,34.4,128.4c-0.4,0.8-1.6,1.6-2.4,2C440.599,143.2,440.199,143.2,439.799,143.2z M289.399,47.6l148.8,86
	c20.8-40.4,6.4-91.2-33.6-114l0,0c-20-11.6-43.2-14.4-65.2-8.8C318.599,16.8,300.999,29.6,289.399,47.6z"/>
<path d="M125.799,507.2c-0.8,0-2-0.4-2.8-1.2c-1.6-1.2-1.6-3.2-0.8-4.8l31.2-54c1.2-2,3.6-2.4,5.6-1.6c2,1.2,2.4,3.6,1.6,5.6
	l-21.6,37.2l40.8-30.4c1.6-1.2,4.4-0.8,5.6,0.8c1.2,1.6,0.8,4.4-0.8,5.6l-56.4,41.6C127.399,506.8,126.599,507.2,125.799,507.2z"/>
<path d="M381.799,507.2c-0.8,0-1.6-0.4-2.4-0.8l-56.4-41.6c-1.6-1.2-2-4-0.8-5.6s4-2,5.6-0.8l40.8,30.4l-21.6-37.2
	c-1.2-2-0.4-4.4,1.6-5.6s4.4-0.4,5.6,1.6l31.2,54c0.8,1.6,0.8,3.6-0.8,4.8C383.799,506.8,382.999,507.2,381.799,507.2z"/>
<path d="M325.399,161.2c-0.8,0-1.2,0-2-0.4c-2-1.2-2.4-3.6-1.6-5.6l6.8-12c1.2-2,3.6-2.4,5.6-1.6c2,1.2,2.4,3.6,1.6,5.6l-6.8,12
	C328.199,160.4,326.599,161.2,325.399,161.2z"/>
<g>
</g>
<g>
</g>
<g>
</g>
<g>
</g>
<g>
</g>
<g>
</g>
<g>
</g>
<g>
</g>
<g>
</g>
<g>
</g>
<g>
</g>
<g>
</g>
<g>
</g>
<g>
</g>
<g>
</g>
</svg>
