<svg height="436pt" viewBox="0 -91 436.3 436" width="436pt" xmlns="http://www.w3.org/2000/svg"><path d="m406.199219.148438h-376.199219c-16.546875.050781-29.953125 13.453124-30 30v193.402343c.046875 16.546875 13.453125 29.949219 30 30h376.300781c16.546875-.050781 29.949219-13.453125 30-30v-193.402343c-.097656-16.566407-13.53125-29.957032-30.101562-30zm10.402343 180.101562c-.015624 2.554688-.976562 5.015625-2.703124 6.898438l-40.796876 43.101562c-1.902343 2-4.542968 3.121094-7.300781 3.101562h-295.300781c-2.753906 0-5.386719-1.121093-7.300781-3.101562l-40.800781-43.101562c-1.761719-1.859376-2.730469-4.335938-2.699219-6.898438v-106.800781c.015625-2.554688.976562-5.015625 2.699219-6.898438l40.800781-43.101562c1.902343-1.996094 4.542969-3.121094 7.300781-3.097657h295.800781c2.777344-.03125 5.4375 1.136719 7.300781 3.199219l40.296876 43.097657c1.707031 1.859374 2.667968 4.28125 2.703124 6.800781zm0 0"/><path d="m74.800781 40.351562-35.101562 37.097657v98.800781l35.101562 37.101562h286.699219l35.101562-37.101562v-98.898438l-34.601562-37.101562zm169.199219 49.699219h13.699219c5.523437 0 10 4.476563 10 10 0 5.523438-4.476563 10-10 10h-13.699219c-4.492188 18.988281-20.921875 32.773438-40.398438 33.898438l38.398438 36.300781c2.984375 2.804688 3.945312 7.152344 2.417969 10.953125-1.523438 3.800781-5.222657 6.28125-9.316407 6.246094-2.558593 0-5.023437-.964844-6.902343-2.699219l-56.597657-53.5c-2.972656-2.824219-3.925781-7.175781-2.40625-10.984375 1.519532-3.8125 5.203126-6.3125 9.304688-6.316406h22.699219c9.386719.019531 17.914062-5.457031 21.800781-14h-44.398438c-5.523437 0-10-4.476563-10-10 0-5.523438 4.476563-10 10-10h44.398438c-3.921875-8.511719-12.425781-13.976563-21.800781-14h-22.699219c-5.523438 0-10-4.476563-10-10 0-5.523438 4.476562-10 10-10h79.199219c5.523437 0 10 4.476562 10 10 0 5.523437-4.476563 10-10 10h-19.699219c2.769531 4.332031 4.800781 9.097656 6 14.101562zm0 0"/></svg>